<svg version="1.1" id="Layer_1" xmlns="http://www.w3.org/2000/svg" xmlns:xlink="http://www.w3.org/1999/xlink"
	 width="665" height="350" viewBox="175 340 665 350" xml:space="preserve">
<path fill="#000000" opacity="1.000000" stroke="none" 
	d="
M574.117981,416.104370 
	C579.771118,411.209473 585.168274,406.558990 590.565430,401.908508 
	C571.763611,407.678314 555.909912,418.325470 542.182739,432.026489 
	C528.423401,445.759521 517.792664,461.693665 511.898621,480.685059 
	C509.925598,479.028137 509.772736,477.187531 509.795105,475.394714 
	C510.041840,455.643311 512.283752,436.257782 519.973938,417.797577 
	C531.577576,389.942841 552.217346,371.274231 579.535278,359.724304 
	C601.850342,350.289642 625.403442,346.320312 649.556030,345.653656 
	C653.047729,345.557312 656.532288,345.211731 660.023926,345.102631 
	C662.729980,345.018036 664.249023,346.040802 664.382446,349.166962 
	C665.522888,375.886993 662.928650,402.120911 652.977356,427.122253 
	C637.612732,465.723602 608.980774,489.686859 569.434387,501.167969 
	C555.623230,505.177643 541.474609,507.045135 527.155090,507.920807 
	C522.826904,508.185486 523.566711,505.836853 524.223389,503.161346 
	C530.630066,477.059601 541.861450,453.352905 558.968506,432.500671 
	C563.628235,426.820770 568.626404,421.482666 574.117981,416.104370 
z"/>
<path fill="#000000" opacity="1.000000" stroke="none" 
	d="
M395.768585,384.960175 
	C408.115417,386.247437 420.008026,387.141113 431.591400,390.636230 
	C463.041870,400.125977 482.797577,425.838226 483.373322,458.601471 
	C483.507843,466.254669 483.489563,473.887970 482.351105,481.497833 
	C481.911713,484.434723 480.718933,486.367615 477.678528,486.170563 
	C453.018494,484.572205 429.359406,480.194733 411.184570,461.275940 
	C398.487366,448.058960 392.018646,432.043701 389.508301,414.058044 
	C388.494720,406.796143 387.463287,399.609406 387.625977,392.257263 
	C387.796478,384.552002 387.681244,384.549438 395.768585,384.960175 
z"/>
<path fill="#000000" opacity="1.000000" stroke="none" 
	d="
M419.575867,639.162354 
	C416.682404,636.150635 413.395294,637.215637 410.328735,637.453857 
	C408.349670,637.607727 408.303070,639.384888 408.299866,640.907043 
	C408.283752,648.569763 408.355438,656.233032 408.270782,663.894775 
	C408.243622,666.350647 409.590485,667.881165 411.123016,669.463013 
	C412.624847,671.013245 414.260651,672.522217 415.384766,674.330811 
	C417.530212,677.782654 416.258545,680.251831 412.300262,680.304688 
	C403.806305,680.418030 395.308472,680.392090 386.814362,680.270935 
	C382.587738,680.210693 380.660736,676.818420 383.834717,674.158447 
	C391.414612,667.806213 389.806000,659.622314 389.833069,651.669067 
	C389.903381,631.013184 389.778381,610.356445 389.893097,589.700989 
	C389.914673,585.815186 389.259491,582.489746 386.206451,579.855591 
	C385.339447,579.107605 384.627045,578.124634 384.020111,577.140686 
	C381.415283,572.917908 382.456787,570.450012 387.404755,570.314819 
	C397.055847,570.051025 406.719482,570.194580 416.377411,570.254700 
	C421.689728,570.287781 427.006989,570.375305 432.311615,570.644226 
	C450.419525,571.561890 463.503754,583.528503 464.708344,601.631287 
	C465.649292,615.772766 457.228210,630.830261 439.497101,635.747986 
	C438.382263,636.057190 437.275116,636.393921 436.234222,636.697510 
	C435.656738,637.751404 436.282379,638.353333 436.872406,638.926758 
	C462.986603,664.305542 494.150360,674.906311 530.336304,670.977295 
	C540.245850,669.901306 549.600098,667.462402 557.933350,661.695862 
	C561.720337,659.075256 564.217957,655.309326 567.355591,652.116821 
	C571.658936,647.738098 573.120117,647.943054 576.419067,653.085571 
	C583.078430,663.466125 581.816345,661.702454 572.570007,666.326843 
	C553.319153,675.954773 532.885132,681.096130 511.375702,680.134888 
	C479.090912,678.692139 450.015442,668.750244 426.516357,645.464172 
	C424.388916,643.356018 422.080597,641.430481 419.575867,639.162354 
M450.609161,616.000305 
	C460.809601,595.632324 443.550842,575.665833 424.602997,576.955811 
	C420.960297,577.203735 417.275177,577.198853 413.631653,576.966064 
	C409.532257,576.704102 408.101105,578.278076 408.168762,582.420166 
	C408.388672,595.888916 408.290161,609.362976 408.306061,622.834961 
	C408.315613,630.916931 408.307312,630.937500 416.313629,631.499939 
	C418.301636,631.639526 420.305359,631.692871 422.296509,631.625977 
	C434.066681,631.230408 444.229767,627.787354 450.609161,616.000305 
z"/>
<path fill="#000000" opacity="1.000000" stroke="none" 
	d="
M189.685638,600.720093 
	C188.868652,587.782043 195.831039,580.376160 206.238068,575.468689 
	C219.861084,569.044739 233.970154,569.413757 248.217743,573.050537 
	C249.506790,573.379578 250.767044,573.823486 252.036102,574.228394 
	C261.405548,577.217590 263.099762,580.183777 261.235809,589.856323 
	C260.887421,591.664185 259.985504,592.517944 258.325287,592.683472 
	C255.372330,592.977722 252.294357,593.746460 250.117645,590.687012 
	C247.183212,586.562561 243.610016,583.118408 239.185211,580.592896 
	C230.136993,575.428406 218.563522,576.342041 211.684143,582.784485 
	C205.786972,588.307068 205.680099,594.027222 211.595657,599.542847 
	C215.759140,603.424866 220.697189,606.248108 225.569702,609.152771 
	C236.566986,615.708740 248.396301,621.000488 257.945709,629.783325 
	C263.421234,634.819336 268.025909,640.510376 268.322144,648.480286 
	C268.805634,661.486938 262.651398,671.478516 249.446732,676.663269 
	C229.264465,684.587830 209.560196,680.972168 190.369843,672.502136 
	C188.536987,671.693237 187.693069,670.078735 187.686752,668.058350 
	C187.679474,665.725281 187.528336,663.382324 187.696350,661.062195 
	C187.841156,659.062561 186.665771,656.319275 189.505157,655.428528 
	C192.421875,654.513672 195.488007,654.523071 197.929230,656.888062 
	C199.241974,658.159912 200.495026,659.524597 201.588181,660.986938 
	C211.503265,674.250977 231.834030,674.757141 244.134583,669.521179 
	C251.355972,666.447327 253.581512,660.224609 250.394150,653.082336 
	C248.213028,648.194946 244.397522,644.726501 240.346130,641.484741 
	C231.057541,634.052368 220.585281,628.520691 210.214523,622.826782 
	C204.053497,619.444092 198.161667,615.676392 193.649094,610.150940 
	C191.518433,607.541992 189.805664,604.692261 189.685638,600.720093 
z"/>
<path fill="#000000" opacity="1.000000" stroke="none" 
	d="
M759.599243,602.692383 
	C763.186401,593.308289 766.798767,584.345032 770.036926,575.248596 
	C771.380859,571.473450 773.685059,570.223572 777.471375,570.090393 
	C789.494080,569.667297 789.466614,569.582825 793.873474,580.846252 
	C804.066040,606.897522 814.358337,632.910156 824.429199,659.008301 
	C826.426758,664.184875 829.368347,668.362488 833.783875,671.631409 
	C835.108337,672.611877 836.525330,673.694092 837.361084,675.059509 
	C838.974915,677.696106 838.751770,680.157654 834.985901,680.219604 
	C825.656372,680.373169 816.320618,680.363708 806.991333,680.195801 
	C803.559387,680.134094 803.136597,677.950439 804.826660,675.410889 
	C806.752930,672.516418 809.644409,669.920227 808.738770,666.059509 
	C807.214478,659.561829 804.586487,653.426392 801.609009,647.465759 
	C800.817200,645.880615 799.025696,646.154175 797.553772,646.153076 
	C783.221558,646.142212 768.888794,646.225525 754.557434,646.121277 
	C751.515564,646.099182 750.046143,647.410278 749.106201,650.111328 
	C747.848389,653.725952 746.427612,657.294434 744.875366,660.793396 
	C742.765015,665.550537 741.643921,670.031128 745.004822,674.901489 
	C747.036255,677.845215 746.324097,680.380676 741.934753,680.325073 
	C737.769043,680.272339 733.601440,680.353638 729.436462,680.276794 
	C725.857239,680.210693 724.584961,677.912292 726.644043,675.386963 
	C743.968262,654.140686 747.904114,626.873108 759.599243,602.692383 
M777.499817,638.696045 
	C782.666077,638.697327 787.838501,638.543152 792.996704,638.748047 
	C797.290283,638.918579 798.314148,637.633850 796.641663,633.488892 
	C790.660400,618.665833 784.962585,603.728577 779.063232,588.871948 
	C778.265381,586.862549 777.733337,584.564880 775.630371,582.744507 
	C771.903748,592.377380 768.265320,601.490662 764.852112,610.687500 
	C761.478394,619.777588 757.168884,628.540344 754.249695,638.695435 
	C762.235901,638.695435 769.367859,638.695435 777.499817,638.696045 
z"/>
<path fill="#000000" opacity="1.000000" stroke="none" 
	d="
M637.787109,639.890808 
	C644.170166,623.026550 650.369385,606.507568 656.745361,590.056946 
	C658.576355,585.332764 659.295471,580.894287 656.768188,576.155151 
	C654.939209,572.725403 655.718140,570.616455 660.238403,570.430969 
	C664.410034,570.259827 668.539307,570.063477 672.691467,570.613098 
	C676.670898,571.139771 676.859619,574.301758 674.675415,575.760071 
	C663.383606,583.299255 662.005432,596.135071 657.561890,607.138184 
	C648.465332,629.663086 640.141235,652.502441 631.691101,675.283508 
	C630.333984,678.942261 628.583191,680.475098 624.508362,680.424866 
	C611.809509,680.268372 611.911194,680.402222 607.458069,668.741211 
	C597.483032,642.620728 587.401794,616.540649 577.344666,590.451599 
	C575.464355,585.573730 572.744446,581.227966 568.926331,577.602112 
	C567.262756,576.022217 566.070801,574.078064 567.091370,571.814148 
	C567.988586,569.824219 570.199707,570.119629 571.966553,570.106934 
	C578.961121,570.056641 585.956543,570.140259 592.951660,570.153076 
	C596.328918,570.159302 598.679688,572.063416 597.053772,575.049866 
	C592.100708,584.148254 596.082825,592.149048 599.222595,600.333313 
	C607.447083,621.771667 615.725159,643.189331 623.998169,664.609070 
	C624.526978,665.978333 625.193787,667.294250 626.390808,669.957886 
	C630.434021,659.313416 634.052246,649.787720 637.787109,639.890808 
z"/>
<path fill="#000000" opacity="1.000000" stroke="none" 
	d="
M357.499481,582.108765 
	C352.840546,569.976990 352.848511,569.956177 365.325043,570.061707 
	C367.485992,570.079956 369.685455,569.982605 371.797516,570.344666 
	C375.263580,570.938843 376.288269,573.708862 373.620911,576.008362 
	C360.754181,587.100342 354.376312,603.038147 343.658539,615.663025 
	C335.829620,624.884949 333.241730,634.923462 333.924408,646.870728 
	C334.493103,656.823120 334.587158,666.349243 341.122925,674.725220 
	C343.796997,678.152283 342.367645,680.251282 337.986877,680.302063 
	C329.328735,680.402466 320.667358,680.431091 312.009949,680.306580 
	C307.724579,680.244934 306.246582,677.933044 308.804962,674.597961 
	C319.268494,660.957825 314.852631,645.193909 315.480804,630.176453 
	C315.553772,628.432007 314.015259,626.524658 312.977936,624.844666 
	C306.068024,613.654419 299.024353,602.546448 292.165314,591.325378 
	C288.900665,585.984558 285.185364,581.225952 279.541504,578.169556 
	C277.333618,576.973877 275.042969,575.280945 275.961426,572.295349 
	C276.886627,569.287781 279.811737,570.201233 281.959869,570.166626 
	C289.284058,570.048340 296.617767,569.985840 303.936279,570.237854 
	C308.967712,570.411072 310.026031,571.805237 307.752441,575.977783 
	C304.830414,581.340271 306.187103,585.578430 309.165100,590.270020 
	C316.272888,601.467468 323.053558,612.872559 330.372284,624.858704 
	C334.592896,618.804077 338.420410,613.417053 342.137146,607.954651 
	C346.538513,601.486145 350.863831,594.965576 355.179108,588.439087 
	C356.372406,586.634338 357.446472,584.741760 357.499481,582.108765 
z"/>
<path fill="#000000" opacity="1.000000" stroke="none" 
	d="
M481.464600,633.255737 
	C477.746155,622.644836 477.616058,612.019897 477.716736,601.344116 
	C477.805328,591.954102 479.272369,582.205505 471.599518,574.538391 
	C470.918610,573.858032 470.730286,572.746887 471.388916,571.140320 
	C477.877777,569.393860 484.820709,569.946777 491.708099,570.306274 
	C494.859650,570.470764 494.274048,573.237610 494.318451,575.321777 
	C494.598572,588.465393 494.941071,601.608704 495.071747,614.753967 
	C495.137360,621.358093 496.350616,627.634155 499.153351,633.605835 
	C503.577942,643.033142 511.108582,647.892578 521.408752,647.526123 
	C532.061768,647.147095 540.208008,642.201416 544.513916,632.096191 
	C546.602234,627.195129 547.906372,622.111389 547.760010,616.609558 
	C547.498901,606.792603 547.595398,596.962158 547.741760,587.140320 
	C547.798462,583.336365 547.047424,580.088318 544.723389,576.913818 
	C541.402771,572.378113 542.490356,570.396545 547.949707,569.973083 
	C555.237061,569.407959 556.027954,570.040100 556.077759,577.412720 
	C556.173279,591.556030 556.862427,605.732422 555.261841,619.822510 
	C553.080688,639.024109 541.459167,655.548462 524.904724,658.107239 
	C505.710968,661.074036 489.330109,651.769165 481.464600,633.255737 
z"/>
<path fill="#000000" opacity="1.000000" stroke="none" 
	d="
M710.074097,651.958252 
	C709.622986,660.176514 711.096497,667.313904 716.137268,673.494751 
	C717.366028,675.001465 718.704590,676.972839 717.714417,678.967407 
	C716.607849,681.196533 714.152893,680.235535 712.283630,680.258484 
	C704.463623,680.354797 696.640747,680.358826 688.820557,680.265198 
	C683.861450,680.205811 682.336121,678.048096 685.084595,674.215881 
	C690.980896,665.994507 691.911621,656.864563 691.735168,647.180847 
	C691.462341,632.208679 691.372620,617.220581 691.764709,602.253845 
	C691.999023,593.311279 690.377991,585.196533 685.660278,577.523438 
	C682.172058,571.850098 682.854309,571.077698 689.528870,570.527771 
	C697.507935,569.870361 705.494324,569.926941 713.466736,570.309570 
	C718.412964,570.546997 719.759888,572.806519 716.679199,576.633606 
	C710.299744,584.558716 709.854370,593.574402 709.983154,603.041870 
	C710.202576,619.180603 710.062012,635.324341 710.074097,651.958252 
z"/>
</svg>